<svg width="200" height="26" viewBox="0 0 200 26" fill="none" xmlns="http://www.w3.org/2000/svg">
<path fill-rule="evenodd" clip-rule="evenodd" d="M20.3395 2.02368C20.4672 2.02804 20.5825 2.03634 20.6835 2.04896C20.9453 2.0816 20.9055 2.3165 20.8465 2.66794C19.383 11.3945 18.7352 20.7963 23.8928 25.2914C23.947 25.3413 24.022 25.4459 23.9967 25.4847C23.9717 25.5235 23.8199 25.5026 23.7577 25.4987C21.2187 25.341 10.9796 21.2702 11.4143 3.80154C11.4212 3.52158 11.4586 3.39356 11.8731 3.27266C13.2591 2.86856 17.6405 2.08386 19.8536 2.02368H20.3395ZM3.97705 10.8212C4.21868 10.6507 6.95834 9.30088 9.47703 8.40028C9.98137 8.23975 9.97814 8.76152 10.0022 8.89853C12.3555 22.3067 18.1072 23.994 19.7248 25.32C19.9423 25.4646 19.6637 25.5185 19.3878 25.505C7.75831 25.5418 4.25655 14.8466 3.61278 11.3403C3.5534 11.0169 3.73542 10.9916 3.97705 10.8212ZM0.256255 19.3266C0.852336 18.5974 2.58689 17.1341 3.30884 16.6552C3.52775 16.5102 3.68622 16.8451 3.8797 17.3015C4.65947 18.9735 5.82164 20.7328 6.96424 21.8907C9.24791 24.205 11.7455 25.0885 11.8725 25.1919C12.0672 25.3508 12.0655 25.4768 11.6922 25.4906C3.79057 25.7841 0.561252 22.0458 0.0219091 19.8804C-0.0363513 19.6465 0.0149526 19.6217 0.256255 19.3266Z" fill="#230B59"/>
<path d="M42.5263 1.73878L39.056 15.6876L35.9145 1.73878H29.9236L35.8049 25.4634H41.1747L44.6815 11.5532L48.1518 25.4634H53.5216L59.4394 1.73878H53.5216L50.4166 15.6876L46.9829 1.73878H42.5263Z" fill="#230B59"/>
<path d="M68.0131 19.397C67.6843 20.5948 66.7711 21.1358 65.6022 21.1358C63.9583 21.1358 62.9355 20.0153 62.7529 17.9287H73.3829V16.4218C73.3829 11.2441 70.5336 7.68926 65.4926 7.68926C60.7438 7.68926 57.2369 11.3987 57.2369 16.7695C57.2369 22.1791 60.5611 25.8498 65.6022 25.8498C69.8761 25.8498 72.7254 23.4155 73.3099 19.397H68.0131ZM65.4926 12.4033C66.9172 12.4033 67.7574 13.4852 67.8305 14.9148H62.8625C63.2278 13.292 64.141 12.4033 65.4926 12.4033Z" fill="#230B59"/>
<path d="M89.6452 25.4634V14.7989C89.6452 10.2781 86.9786 7.65062 82.3028 7.65062C78.0654 7.65062 75.2526 10.3167 74.7778 13.6784H80.1841C80.4398 12.9056 81.0608 12.4033 82.1202 12.4033C83.5083 12.4033 84.1293 13.3693 84.1293 14.4898V15.6104C83.4718 15.108 81.8645 14.6444 80.5129 14.6444C76.933 14.6444 74.1933 16.8082 74.1933 20.1698C74.1933 23.8406 76.933 25.7725 80.1841 25.7725C81.9375 25.7725 83.5813 25.1543 84.1293 24.5747V25.4634H89.6452ZM84.1293 20.5948C83.764 21.2904 82.7777 21.754 81.7183 21.754C80.5859 21.754 79.4535 21.2517 79.4535 20.0539C79.4535 18.8947 80.5859 18.3924 81.7183 18.3924C82.7777 18.3924 83.764 18.8561 84.1293 19.5902V20.5948Z" fill="#230B59"/>
<path d="M96.9906 0.347755H91.2555V25.4634H96.9906V12.9056V0.347755Z" fill="#230B59"/>
<path d="M100.64 19.4743C100.64 23.8792 102.832 25.8112 106.704 25.8112C107.982 25.8112 109.224 25.5793 109.882 25.2702V20.1312C109.37 20.363 108.676 20.5176 108.055 20.5176C106.923 20.5176 106.302 19.938 106.302 18.5856V12.7897H109.736V8.07565H106.302V3.28436H100.64V8.07565H98.229V12.7897H100.64V19.4743Z" fill="#230B59"/>
<path d="M111.036 25.4634H116.771V14.9535C117.063 13.7557 118.013 13.0601 119.145 13.0601C120.606 13.0601 121.3 14.1034 121.3 15.5331V25.4634H126.999V14.0648C126.999 10.2008 124.844 7.68926 121.191 7.68926C119.291 7.68926 117.684 8.50069 116.771 9.58259V0.347755H111.036V25.4634Z" fill="#230B59"/>
<path d="M139.422 0.463675C138.728 0.193197 137.851 0 136.756 0C132.737 0 130.363 2.62749 130.363 6.80055V8.07565H127.916V12.7897H130.363V25.4634H136.025V12.7897H139.203V8.07565H136.025V7.1483C136.025 5.75728 136.792 5.06177 138.071 5.06177C138.582 5.06177 139.02 5.17769 139.422 5.40953V0.463675Z" fill="#230B59"/>
<path d="M151.356 7.99837C151.101 7.84382 150.516 7.68926 149.786 7.68926C148.142 7.68926 146.863 8.46205 146.06 9.62123V8.07565H140.325V25.4634H146.06V15.2626C146.352 14.0261 147.411 13.292 148.982 13.292C149.895 13.292 150.662 13.4465 151.356 13.8329V7.99837Z" fill="#230B59"/>
<path d="M169.017 16.7695C169.017 11.3987 165.314 7.68926 160.309 7.68926C155.341 7.68926 151.908 11.3987 151.908 16.7695C151.908 22.1404 155.647 25.8498 160.615 25.8498C165.619 25.8498 169.017 22.1404 169.017 16.7695ZM163.086 16.7695C163.086 19.1652 162.099 20.8267 160.309 20.8267C158.556 20.8267 157.57 19.1652 157.57 16.7695C157.57 14.3739 158.556 12.6738 160.309 12.6738C162.099 12.6738 163.086 14.3739 163.086 16.7695Z" fill="#230B59"/>
<path d="M170.254 25.4634H175.989V14.9535C176.282 13.7557 177.231 13.0601 178.364 13.0601C179.825 13.0601 180.519 14.1034 180.519 15.5331V25.4634H186.218V14.0648C186.218 10.2008 184.062 7.68926 180.409 7.68926C178.51 7.68926 176.903 8.50069 175.989 9.58259V8.07565H170.254V25.4634Z" fill="#230B59"/>
<path d="M189.266 19.4743C189.266 23.8792 191.458 25.8112 195.33 25.8112C196.609 25.8112 197.851 25.5793 198.508 25.2702V20.1312C197.997 20.363 197.303 20.5176 196.682 20.5176C195.549 20.5176 194.928 19.938 194.928 18.5856V12.7897H198.362V8.07565H194.928V3.28436H189.266V8.07565H186.855V12.7897H189.266V19.4743Z" fill="#230B59"/>
</svg>
